<svg xmlns="http://www.w3.org/2000/svg" enable-background="new 0 0 50 50" viewBox="0 0 50 50"><path d="M16.72573,21.48784l3.8121,1.3928c0.6703-5.1451-1.3299-8.4376-1.7029-9.7661c-0.0195-0.0508-0.0576-0.0899-0.1054-0.1104
			l-5.7696-2.4473c-0.3783,2.6112-1.6593,6.0644-1.0236,11.774C12.82953,21.31104,14.94584,20.83764,16.72573,21.48784z"/><path d="M28.91893,14.56374l0.8203-2.1602c0.2129-0.5576,0.6485-1.0097,1.1954-1.2412l6.5059-2.7607l2.339-4.4281
			c-0.2235-0.1289-0.4534-0.2492-0.7021-0.3344c-10.9444-3.7511-18.5598-3.4338-28.378-0.0173
			c-0.3237,0.1125-0.6228,0.2705-0.9024,0.4553l3.0679,4.266l6.6448,2.8192c0.5489,0.2324,0.9844,0.6856,1.1954,1.2432
			c0.06371,0.5819,6.0369,11.4714-3.0381,20.8135c-0.5908,0.5497-0.8104,1.0071-1.5625,1.2722v11.3042
			c0.0888,0.0715,0.1726,0.1462,0.2626,0.2168c5.2459,4.1215,12.7696,4.0568,17.918-0.1695v-11.3681
			c-0.2938-0.1123-0.5644-0.2829-0.791-0.5164C33.42793,33.83564,24.53873,26.09104,28.91893,14.56374z"/><path d="M10.27243,13.91134l0.8783-4.5271l-2.7138-3.7734c-0.0949,0.1825-0.1971,0.3608-0.2648,0.5583
			c-4.7119,13.7391-3.7346,28.4397,5.9324,37.8572v-9.8288C12.38063,32.96224,8.37843,23.67034,10.27243,13.91134z"/><path d="M20.35573 23.97914l-3.63 1.3262c-1.5528.5672-3.361.2784-4.3914-.481.5581 2.6801 1.503 5.2833 2.8688 7.7003.1299.2285.2481.1065.3106.041C15.82913 32.14444 19.25903 29.39834 20.35573 23.97914zM41.59803 6.13964c-.0873-.2443-.2086-.47-.3373-.6902l-1.9977 3.7822.9079 4.6797c1.9187 9.8862-2.1982 19.1954-3.8858 20.3278v9.7811C45.80273 34.44724 46.46063 19.73534 41.59803 6.13964z"/><path d="M31.71484 13.00414c-.0498.0205-.0869.0606-.1064.1113-.3608 1.2987-2.4218 4.6991-1.6781 9.9433l4.2997-1.5709c1.5204-.5555 3.2848-.2894 4.3252.4348.5165-5.3924-.699-8.8599-1.0718-11.3658L31.71484 13.00414zM34.23003 25.30534l-4.1765-1.5258c1.0284 5.4373 4.8623 8.8455 5.00531 8.8741.02889-.007.05759-.0137.08739-.0181.0303-.0196.0618-.0542.094-.1109 1.3073-2.3132 2.2291-4.7972 2.797-7.3555C36.98623 25.65744 35.51933 25.77634 34.23003 25.30534zM16.72573 21.48784l3.8121 1.3928c.6703-5.1451-1.3299-8.4376-1.7029-9.7661-.0195-.0508-.0576-.0899-.1054-.1104l-5.7696-2.4473c-.3783 2.6112-1.6593 6.0644-1.0236 11.774C12.82953 21.31104 14.94584 20.83764 16.72573 21.48784z"/><path d="M28.91893,14.56374l0.8203-2.1602c0.2129-0.5576,0.6485-1.0097,1.1954-1.2412l6.5059-2.7607l2.339-4.4281
				c-0.2235-0.1289-0.4534-0.2492-0.7021-0.3344c-10.9444-3.7511-18.5598-3.4338-28.378-0.0173
				c-0.3237,0.1125-0.6228,0.2705-0.9024,0.4553l3.0679,4.266l6.6448,2.8192c0.5489,0.2324,0.9844,0.6856,1.1954,1.2432
				c0.06371,0.5819,6.0369,11.4714-3.0381,20.8135c-0.5908,0.5497-0.8104,1.0071-1.5625,1.2722v11.3042
				c0.0888,0.0715,0.1726,0.1462,0.2626,0.2168c5.2459,4.1215,12.7696,4.0568,17.918-0.1695v-11.3681
				c-0.2938-0.1123-0.5644-0.2829-0.791-0.5164C33.42793,33.83564,24.53873,26.09104,28.91893,14.56374z"/><path d="M10.27243,13.91134l0.8783-4.5271l-2.7138-3.7734c-0.0949,0.1825-0.1971,0.3608-0.2648,0.5583
				c-4.7119,13.7391-3.7346,28.4397,5.9324,37.8572v-9.8288C12.38063,32.96224,8.37843,23.67034,10.27243,13.91134z"/><path d="M20.35573 23.97914l-3.63 1.3262c-1.5528.5672-3.361.2784-4.3914-.481.5581 2.6801 1.503 5.2833 2.8688 7.7003.1299.2285.2481.1065.3106.041C15.82913 32.14444 19.25903 29.39834 20.35573 23.97914zM41.59803 6.13964c-.0873-.2443-.2086-.47-.3373-.6902l-1.9977 3.7822.9079 4.6797c1.9187 9.8862-2.1982 19.1954-3.8858 20.3278v9.7811C45.80273 34.44724 46.46063 19.73534 41.59803 6.13964z"/><path d="M31.71484 13.00414c-.0498.0205-.0869.0606-.1064.1113-.3608 1.2987-2.4218 4.6991-1.6781 9.9433l4.2997-1.5709c1.5204-.5555 3.2848-.2894 4.3252.4348.5165-5.3924-.699-8.8599-1.0718-11.3658L31.71484 13.00414zM34.23003 25.30534l-4.1765-1.5258c1.0284 5.4373 4.8623 8.8455 5.00531 8.8741.02889-.007.05759-.0137.08739-.0181.0303-.0196.0618-.0542.094-.1109 1.3073-2.3132 2.2291-4.7972 2.797-7.3555C36.98623 25.65744 35.51933 25.77634 34.23003 25.30534z"/></svg>